<?xml version="1.0" encoding="UTF-8"?>
<svg xmlns="http://www.w3.org/2000/svg" viewBox="-0.5 -0.5 771 301">

  <!-- Titles -->
  <text x="205" y="19" font-family="Helvetica, Arial, sans-serif" font-size="12" text-anchor="middle">
    Traditional Client-Server Network
  </text>
  <text x="639" y="19" font-family="Helvetica, Arial, sans-serif" font-size="12" text-anchor="middle">
    Peer to Peer (P2P) Network
  </text>

  <!-- Server -->
  <ellipse cx="205" cy="115" rx="40" ry="40" fill="#fff2cc" stroke="#d6b656"/>
  <text x="205" y="119" font-family="Helvetica, Arial, sans-serif" font-size="12" text-anchor="middle">Server</text>

  <!-- Clients -->
  <ellipse cx="25"  cy="270" rx="25" ry="25" fill="#ececec" stroke="#000"/>
  <ellipse cx="115" cy="270" rx="25" ry="25" fill="#ececec" stroke="#000"/>
  <ellipse cx="205" cy="270" rx="25" ry="25" fill="#ececec" stroke="#000"/>
  <ellipse cx="295" cy="270" rx="25" ry="25" fill="#ececec" stroke="#000"/>
  <ellipse cx="385" cy="270" rx="25" ry="25" fill="#ececec" stroke="#000"/>
  <text x="25"  y="274" font-family="Helvetica, Arial, sans-serif" font-size="12" text-anchor="middle">Client</text>
  <text x="115" y="274" font-family="Helvetica, Arial, sans-serif" font-size="12" text-anchor="middle">Client</text>
  <text x="205" y="274" font-family="Helvetica, Arial, sans-serif" font-size="12" text-anchor="middle">Client</text>
  <text x="295" y="274" font-family="Helvetica, Arial, sans-serif" font-size="12" text-anchor="middle">Client</text>
  <text x="385" y="274" font-family="Helvetica, Arial, sans-serif" font-size="12" text-anchor="middle">Client</text>

  <!-- Client-Server lines -->
  <path d="M25 245 L205 155"  fill="none" stroke="#000"/>
  <path d="M120 245 L205 155" fill="none" stroke="#000"/>
  <path d="M205 245 L205 155" fill="none" stroke="#000"/>
  <path d="M205 155 L295 245" fill="none" stroke="#000"/>
  <path d="M205 155 L385 245" fill="none" stroke="#000"/>

  <!-- P2P Users -->
  <ellipse cx="639" cy="70"  rx="25" ry="25" fill="#e1d5e7" stroke="#9673a6"/>
  <ellipse cx="535" cy="155" rx="25" ry="25" fill="#e1d5e7" stroke="#9673a6"/>
  <ellipse cx="745" cy="155" rx="25" ry="25" fill="#e1d5e7" stroke="#9673a6"/>
  <ellipse cx="589" cy="275" rx="25" ry="25" fill="#e1d5e7" stroke="#9673a6"/>
  <ellipse cx="689" cy="275" rx="25" ry="25" fill="#e1d5e7" stroke="#9673a6"/>
  <text x="639" y="74"  font-family="Helvetica, Arial, sans-serif" font-size="12" text-anchor="middle">User</text>
  <text x="535" y="159" font-family="Helvetica, Arial, sans-serif" font-size="12" text-anchor="middle">User</text>
  <text x="745" y="159" font-family="Helvetica, Arial, sans-serif" font-size="12" text-anchor="middle">User</text>
  <text x="589" y="279" font-family="Helvetica, Arial, sans-serif" font-size="12" text-anchor="middle">User</text>
  <text x="689" y="279" font-family="Helvetica, Arial, sans-serif" font-size="12" text-anchor="middle">User</text>

  <!-- P2P lines -->
  <path d="M552.68 137.32 L621.32 87.68"  fill="none" stroke="#000"/>
  <path d="M727.32 137.32 L656.68 87.68"  fill="none" stroke="#000"/>
  <path d="M720 155 L560 155"            fill="none" stroke="#000"/>
  <path d="M571.32 257.32 L535 180"      fill="none" stroke="#000"/>
  <path d="M614 275 L664 275"            fill="none" stroke="#000"/>
  <path d="M706.68 257.32 L745 180"      fill="none" stroke="#000"/>
  <path d="M589 250 L727.32 172.68"      fill="none" stroke="#000"/>
  <path d="M552.68 172.68 L689 250"      fill="none" stroke="#000"/>

</svg>
